<?xml version="1.0" encoding="utf-8"?>
<!-- Generator: Adobe Illustrator 24.0.2, SVG Export Plug-In . SVG Version: 6.00 Build 0)  -->
<svg version="1.1" id="Capa_1" xmlns="http://www.w3.org/2000/svg" xmlns:xlink="http://www.w3.org/1999/xlink" x="0px" y="0px"
	 viewBox="0 0 224.15 221.34" style="enable-background:new 0 0 224.15 221.34;" xml:space="preserve">
<style type="text/css">
	.st0{fill:none;}
</style>
<g>
	<path class="st0" d="M88.5,204.66c3.93,0.97,7.96,1.7,12.07,2.17v-48.58C100.29,159.32,94.39,181.97,88.5,204.66z"/>
	<path class="st0" d="M125.13,104.23v102.28c46.68-6.61,82.71-46.81,82.71-95.29c0-53.08-43.19-96.27-96.27-96.27
		s-96.27,43.18-96.27,96.27c0,43.3,28.75,80.01,68.15,92.07c10.16-39.39,25.56-99.05,25.56-99.05H125.13z"/>
	<path d="M100.57,158.25v48.58c3.62,0.41,7.28,0.65,11.01,0.65c4.6,0,9.12-0.35,13.55-0.97V104.23h-16.1c0,0-15.4,59.67-25.56,99.05
		c1.66,0.51,3.34,0.96,5.04,1.38C94.39,181.97,100.29,159.32,100.57,158.25z"/>
	<path d="M88.5,204.66c-0.8,3.1-1.61,6.2-2.4,9.24c4.71,1.17,9.53,2.03,14.47,2.55v-9.62C96.46,206.36,92.44,205.64,88.5,204.66z"/>
	<path d="M217.39,111.21c0-58.35-47.47-105.81-105.81-105.81S5.76,52.87,5.76,111.21c0,25.1,8.8,48.17,23.45,66.32h0.06
		c0,0,0.01,0.05,0.03,0.12c13.21,16.33,31.18,28.66,51.77,34.87c0.75-2.92,1.55-6.01,2.39-9.25
		c-39.41-12.06-68.15-48.76-68.15-92.07c0-53.08,43.19-96.27,96.27-96.27s96.27,43.18,96.27,96.27c0,48.48-36.03,88.68-82.71,95.29
		v9.62C177.09,209.45,217.39,164.97,217.39,111.21z"/>
	<path d="M29.28,177.54h-0.06c0.03,0.04,0.06,0.08,0.09,0.12C29.29,177.59,29.28,177.54,29.28,177.54z"/>
	<path d="M111.58,207.48c-3.72,0-7.39-0.23-11.01-0.65v9.62c3.62,0.38,7.29,0.57,11.01,0.57c4.59,0,9.11-0.33,13.55-0.9v-9.62
		C120.7,207.13,116.18,207.48,111.58,207.48z"/>
	<path d="M83.46,203.28c-0.83,3.24-1.63,6.33-2.39,9.25c1.66,0.5,3.33,0.96,5.02,1.38c0.79-3.05,1.59-6.14,2.4-9.24
		C86.81,204.24,85.12,203.79,83.46,203.28z"/>
</g>
</svg>
