<?xml version="1.0" encoding="utf-8"?>
<!-- Generator: Adobe Illustrator 24.0.2, SVG Export Plug-In . SVG Version: 6.00 Build 0)  -->
<svg version="1.1" id="Capa_1" xmlns="http://www.w3.org/2000/svg" xmlns:xlink="http://www.w3.org/1999/xlink" x="0px" y="0px"
	 viewBox="0 0 700 700" style="enable-background:new 0 0 700 700;" xml:space="preserve">
<style type="text/css">
	.st0{fill:#E1B989;}
</style>
<g>
	<path class="st0" d="M349.3,31.5c93.8,0,187.5,0,281.3,0c18.2,0,31.3,8.9,36.2,24.4c1.3,4.2,1.8,8.6,1.8,13.1
		c0,187.7,0,375.5,0,563.2c0,22.6-15,37.7-37.4,37.7c-51.4,0.1-102.9,0-154.3,0.1c-4.9,0-6.3-1.1-6.3-6.2
		c0.2-78.5,0.2-156.9,0-235.4c0-4.8,1.5-5.8,6-5.7c23.9,0.2,47.9,0,71.8,0.2c4.4,0,5.8-0.9,6.4-5.6c3.5-28.8,7.3-57.5,11.3-86.3
		c0.7-4.7-1.2-5-5-5c-27.9,0.1-55.9-0.1-83.8,0.2c-5.7,0.1-6.9-1.7-6.8-7c0.4-19.1,0-38.1,0.2-57.2c0.4-30.4,13.7-43.8,44-44.2
		c16.2-0.2,32.4-0.2,48.5,0c4.3,0.1,6.1-0.6,6-5.6c-0.3-25.3-0.2-50.5,0-75.8c0-3.9-0.8-5.2-4.9-5.5c-32-2.3-64.1-5.8-96.1-1
		c-50.8,7.6-87.1,44.4-94.9,95.5c-3.4,22.5-2,45.1-2.4,67.7c-0.1,9.1-0.3,18.2,0.1,27.3c0.2,4.6-1,5.9-5.8,5.9
		c-23.3-0.3-46.5,0-69.8-0.2c-5.5-0.1-7.5,0.8-7.5,7c0.4,27.9,0.3,55.9,0,83.8c0,5.1,1.4,6.1,6.2,6c23.7-0.3,47.4,0,71.2-0.2
		c4.1,0,5.6,0.8,5.6,5.3c-0.1,78.9-0.1,157.8,0,236.7c0,4-1,5.2-5.1,5.2c-100-0.1-199.9,0-299.9-0.2c-21,0-35.8-15.2-35.9-36.3
		c-0.1-188.6-0.1-377.3,0-565.9c0-22.1,14.9-36.2,37.8-36.2C161.8,31.5,255.6,31.5,349.3,31.5z"/>
</g>
</svg>
