<?xml version="1.0" encoding="utf-8"?>
<!-- Generator: Adobe Illustrator 24.0.2, SVG Export Plug-In . SVG Version: 6.00 Build 0)  -->
<svg version="1.1" id="Capa_1" xmlns="http://www.w3.org/2000/svg" xmlns:xlink="http://www.w3.org/1999/xlink" x="0px" y="0px"
	 viewBox="0 0 395.22 221.34" style="enable-background:new 0 0 395.22 221.34;" xml:space="preserve">
<style type="text/css">
	.st0{fill:#FFFFFF;}
</style>
<g>
	<path class="st0" d="M17.4,161.97c0.44-1.77,1.19-4.59,2.24-8.46c1.05-3.87,2.21-8.27,3.49-13.19c1.27-4.92,2.6-10.07,3.98-15.43
		c1.38-5.37,2.68-10.4,3.9-15.1c1.22-4.7,2.27-8.8,3.15-12.28c0.88-3.49,1.49-5.78,1.83-6.89c-1.55-5.97-2.88-11.29-3.98-15.93
		c-1.11-4.65-1.99-8.24-2.66-10.79h16.43v0.17c0,0.11,0.05,0.22,0.17,0.33c0.22,0.89,0.69,2.85,1.41,5.89
		c0.72,3.04,1.66,6.92,2.82,11.62c1.16,4.7,2.49,10.04,3.98,16.02c1.49,5.97,3.04,12.31,4.65,19c1.6,6.7,3.29,13.61,5.06,20.75
		c1.77,7.14,3.49,14.14,5.14,20.99h24.73V63.89h33.03c5.97,0,11.26,1.3,15.85,3.9c4.59,2.6,8.49,6,11.7,10.21
		c3.21,4.21,5.75,8.94,7.63,14.19c1.88,5.26,3.1,10.54,3.65,15.85c0.77,7.19,0.61,13.72-0.5,19.58c-1.11,5.87-2.85,11.04-5.23,15.52
		c-2.38,4.48-5.28,8.19-8.71,11.12c-3.43,2.93-7.03,5.01-10.79,6.22l28.05,59.08h-16.1l-28.38-57.59h-14.44v57.59H93.75v-57.59
		h-23.9c1.88,7.63,3.65,14.85,5.31,21.66c1.66,6.8,3.15,12.84,4.48,18.09c1.33,5.26,2.38,9.46,3.15,12.61
		c0.77,3.15,1.16,4.9,1.16,5.23h-16.1c-0.55-1.99-1.27-4.87-2.16-8.63c-0.89-3.76-1.97-8.19-3.24-13.28
		c-1.27-5.09-2.66-10.65-4.15-16.68c-1.49-6.03-3.07-12.36-4.73-19h-32.7c-1.66,6.31-3.24,12.48-4.73,18.5
		c-1.49,6.03-2.9,11.56-4.23,16.6c-1.33,5.04-2.52,9.52-3.57,13.44c-1.05,3.93-1.85,6.94-2.41,9.04H2.47L17.4,161.97z M37.65,97.25
		c-1,3.87-2.1,8.19-3.32,12.94c-1.22,4.76-2.52,9.79-3.9,15.1c-1.38,5.31-2.82,10.79-4.31,16.43c-1.49,5.64-2.96,11.29-4.4,16.93
		h31.04c-2.55-10.51-5.14-21.1-7.8-31.78C42.3,116.19,39.86,106.32,37.65,97.25z M127.6,158.65c3.87,0,7.3-1.16,10.29-3.48
		c2.54-1.99,4.67-4.65,6.39-7.97c1.71-3.32,3.07-7,4.07-11.04c1-4.04,1.6-8.35,1.83-12.94c0.22-4.59,0.17-9.1-0.17-13.53
		c-0.33-3.65-1.05-7.91-2.16-12.78c-1.11-4.87-2.74-9.51-4.9-13.94c-2.16-4.42-4.84-8.16-8.05-11.2c-3.21-3.04-7.03-4.56-11.45-4.56
		h-13.94v91.44H127.6z"/>
	<path class="st0" d="M326.88,109.89v3.32h-32.19v45.44h40.39l-0.73,3.32h-39.66v54.27h31.49v3.32h-46.92v-97.94l8.04-5.82
		l5.82-5.92H326.88z"/>
	<path class="st0" d="M340.72,138.24c-6.42-4.54-11.23-9.85-14.44-15.93c-3.21-6.08-5.09-12.2-5.64-18.34
		c-0.55-6.14,0.08-11.95,1.91-17.43c1.83-5.48,4.56-9.98,8.22-13.53c3.32-3.21,6.94-5.53,10.87-6.97c3.93-1.44,7.94-2.16,12.03-2.16
		c3.98,0,7.88,0.64,11.7,1.91c3.82,1.27,7.27,3.1,10.37,5.48c3.1,2.38,5.7,5.2,7.8,8.46c2.1,3.27,3.49,6.89,4.15,10.87h-15.77
		c-2.1-8.08-4.98-14-8.63-17.76c-3.65-3.76-7.53-5.64-11.62-5.64c-4.65,0-9.02,2.21-13.11,6.64c-2.1,2.32-3.79,5.34-5.06,9.04
		c-1.27,3.71-1.77,7.75-1.49,12.12c0.28,4.37,1.55,8.88,3.82,13.53c2.27,4.65,5.89,9.07,10.87,13.28c3.54,2.99,7.03,5.64,10.46,7.97
		c3.43,2.32,6.78,4.7,10.04,7.14c3.26,2.43,6.44,5.04,9.54,7.8c3.1,2.77,6.08,6.14,8.96,10.12c2.32,3.21,4.09,7.03,5.31,11.45
		c1.22,4.43,1.8,9.04,1.74,13.86c-0.06,4.81-0.8,9.57-2.24,14.27c-1.44,4.7-3.62,8.91-6.56,12.61c-2.93,3.71-6.67,6.72-11.2,9.04
		c-4.54,2.32-9.9,3.49-16.1,3.49c-8.19,0-14.91-1.38-20.16-4.15c-5.26-2.76-9.35-6.69-12.28-11.78c-2.93-5.09-4.84-11.17-5.73-18.26
		c-0.89-7.08,0.06-18.07,0.83-26.59h15.77c-0.56,6.64-1.58,16.42-1.08,22.94c0.5,6.53,1.66,12.34,3.49,17.43
		c1.83,5.09,4.31,9.21,7.47,12.36s7.11,4.73,11.87,4.73c5.31,0,9.68-1.44,13.11-4.31c3.43-2.88,5.92-6.53,7.47-10.95
		c1.55-4.42,2.21-9.27,1.99-14.52c-0.22-5.25-1.33-10.26-3.32-15.02c-1.66-3.76-3.65-7.05-5.97-9.88s-4.98-5.48-7.97-7.97
		c-2.99-2.49-6.28-4.92-9.87-7.3C348.65,143.91,344.81,141.23,340.72,138.24z"/>
</g>
<g>
	<path class="st0" d="M245.85,134.78c-36.67,0-66.5-29.83-66.5-66.5s29.83-66.5,66.5-66.5s66.5,29.83,66.5,66.5
		S282.51,134.78,245.85,134.78z M245.85,7.78c-33.36,0-60.5,27.14-60.5,60.5s27.14,60.5,60.5,60.5s60.5-27.14,60.5-60.5
		S279.2,7.78,245.85,7.78z"/>
</g>
<rect x="162.38" y="109.96" class="st0" width="28.93" height="3.31"/>
<path class="st0" d="M245.85,128.78c2.89,0,5.73-0.22,8.52-0.61V63.89h-10.12c0,0-9.68,37.5-16.06,62.25
	c1.04,0.32,2.1,0.61,3.17,0.87c3.7-14.26,7.41-28.5,7.58-29.17v30.53C241.2,128.63,243.5,128.78,245.85,128.78z"/>
<path class="st0" d="M224.08,155.08c0.83-3.26,3.17-12.3,5.76-22.27c-1.06-0.26-2.11-0.55-3.16-0.87
	c-1.95,7.55-3.4,13.18-3.85,14.92c-1.88,7.3-3.57,13.83-5.06,19.58c-1.49,5.75-2.71,10.43-3.65,14.02c-0.94,3.6-1.41,5.51-1.41,5.73
	c-1.11-4.31-2.49-9.87-4.15-16.68c-1.63-6.66-13.91-57.41-14.42-59.49c-0.02-0.02-0.04-0.05-0.06-0.07h-16.06
	c0.11,0.66,23.31,96.82,24.48,101.47c1.16,4.65,1.85,7.36,2.08,8.13h16.26c-0.55-2.54-1.41-6.14-2.57-10.79
	c-1.16-4.65-2.52-10.01-4.07-16.1c0.88-3.21,2.21-8.16,3.98-14.85C219.95,171.13,221.92,163.55,224.08,155.08z"/>
<path class="st0" d="M246.64,140.24c-2.61,0-5.18-0.15-7.72-0.42v79.74h15.43v-79.74C251.83,140.09,249.25,140.24,246.64,140.24z"/>
</svg>
