<?xml version="1.0" encoding="utf-8"?>
<!-- Generator: Adobe Illustrator 24.0.2, SVG Export Plug-In . SVG Version: 6.00 Build 0)  -->
<svg version="1.1" id="Capa_1" xmlns="http://www.w3.org/2000/svg" xmlns:xlink="http://www.w3.org/1999/xlink" x="0px" y="0px"
	 viewBox="0 0 600 500" style="enable-background:new 0 0 600 500;" xml:space="preserve">
<style type="text/css">
	.st0{fill:#E1B989;}
</style>
<path class="st0" d="M539.6,100.3H189.2c-21.7,0-39.4-17.6-39.4-39.4v0c0-21.7,17.6-39.4,39.4-39.4h350.4
	c21.7,0,39.4,17.6,39.4,39.4v0C579,82.7,561.4,100.3,539.6,100.3z"/>
<path class="st0" d="M539.6,289H189.2c-21.7,0-39.4-17.6-39.4-39.4v0c0-21.7,17.6-39.4,39.4-39.4h350.4c21.7,0,39.4,17.6,39.4,39.4
	v0C579,271.3,561.4,289,539.6,289z"/>
<path class="st0" d="M539.6,478.5H189.2c-21.7,0-39.4-17.6-39.4-39.4v0c0-21.7,17.6-39.4,39.4-39.4h350.4
	c21.7,0,39.4,17.6,39.4,39.4v0C579,460.8,561.4,478.5,539.6,478.5z"/>
<circle class="st0" cx="64.5" cy="60.5" r="54.5"/>
<circle class="st0" cx="64.5" cy="250" r="54.5"/>
<circle class="st0" cx="64.5" cy="439.5" r="54.5"/>
</svg>
