<?xml version="1.0" encoding="utf-8"?>
<!-- Generator: Adobe Illustrator 24.0.2, SVG Export Plug-In . SVG Version: 6.00 Build 0)  -->
<svg version="1.1" id="Capa_1" xmlns="http://www.w3.org/2000/svg" xmlns:xlink="http://www.w3.org/1999/xlink" x="0px" y="0px"
	 viewBox="0 0 700 700" style="enable-background:new 0 0 700 700;" xml:space="preserve">
<style type="text/css">
	.st0{fill:#E1B989;}
</style>
<g>
	<path class="st0" d="M251.3,677.3c-8.8-3.1-18.1-3.1-27.1-4.9C142.5,655.7,77.7,587.7,65,505.2c-16.5-107.7,57.5-210.5,164.8-229.1
		c20.1-3.5,40.1-4.3,60.4-2.3c5.5,0.5,8.2,1.7,8.1,8.6c-0.5,31.3-0.3,62.6-0.1,93.9c0,5.1-0.2,6.9-6.5,5.3
		C228,364.9,167.1,415.3,171,480.9c3,50.4,46.2,90.5,97.1,90.3c51-0.2,93.9-40.6,95.7-91.3c1.1-31.9,0.6-63.8,0.6-95.8
		c0.1-117.7,0.1-235.4,0-353.1c0-5.8,1.4-7.4,7.3-7.4c31.3,0.3,62.6,0.2,93.9,0c4.5,0,5.5,1.2,5.7,5.6
		c3.4,85.8,72.9,154.8,158.6,157.7c5,0.2,6.9,1.2,6.8,6.7c-0.3,31.3-0.2,62.6,0,93.9c0,4.9-1.3,5.9-6.1,5.8
		c-57.4-1.4-109.1-19.3-155.4-53.1c-1-0.7-2-1.4-4-2.8c0,3,0,5.2,0,7.4c0.2,75.6,0.4,151.1,0.7,226.7c0.1,37.4-8.2,72.6-27.8,104.6
		c-36.7,59.8-90.2,93.2-160.2,100c-1.1,0.1-2.6-0.5-3.2,1.2c-2.1,0-4.3,0-6.4,0c-4.3-2.1-8.5-1.9-12.8,0
		C258.1,677.3,254.7,677.3,251.3,677.3z"/>
	<path class="st0" d="M261.5,677.3c4.3-1.9,8.5-2.1,12.8,0C270,677.3,265.7,677.3,261.5,677.3z"/>
</g>
</svg>
