<?xml version="1.0" encoding="utf-8"?>
<!-- Generator: Adobe Illustrator 24.0.2, SVG Export Plug-In . SVG Version: 6.00 Build 0)  -->
<svg version="1.1" id="Capa_1" xmlns="http://www.w3.org/2000/svg" xmlns:xlink="http://www.w3.org/1999/xlink" x="0px" y="0px"
	 viewBox="0 0 700 700" style="enable-background:new 0 0 700 700;" xml:space="preserve">
<style type="text/css">
	.st0{fill:#E1B989;}
</style>
<g>
	<path class="st0" d="M34,667.8c8.5-31.1,16.7-61.1,24.9-91.1c6.2-22.6,12.3-45.2,18.6-67.7c1-3.5,0.5-6.3-1.2-9.4
		c-30.3-54.4-44.3-113-38.8-174.9c11.1-123.1,72.8-213.6,184.7-265.8c131.4-61.3,283.5-24.7,375.3,87.7
		c54.6,66.8,77.4,144.2,69.5,230.1c-11.7,126.8-100.5,235.4-222.4,271.9c-82.4,24.7-162.1,16.8-238.7-22.3c-3.2-1.6-5.9-1.9-9.4-1
		C144.8,639,92.8,652.5,40.9,666.1C39,666.6,37.1,667,34,667.8z M109.8,592.9c30.9-8.2,60.8-15.9,90.6-24c6.2-1.7,11.1-1,16.7,2.3
		c58.1,34.6,120.8,45.9,187,32.7c141.7-28.1,234-166.1,206.7-307.5C584,157.8,450.9,64.1,312.4,86.5c-51,8.2-96.2,29.3-134.6,64
		c-53.7,48.6-83.1,109.4-87.3,181.6c-3.4,57.4,11.5,110.3,42.8,158.6c2.4,3.7,2.9,6.9,1.7,11C126.6,531.7,118.4,561.7,109.8,592.9z"
		/>
	<path class="st0" d="M192.3,273.9c-0.3-25.5,10.2-47.2,28.8-65.2c5.8-5.6,12.7-8.7,20.9-8.4c4.2,0.1,8.4,0.6,12.6,0.1
		c9.6-1,14.9,3.9,18.3,12c8.7,20.8,17.3,41.6,26,62.3c2.1,4.9,1.4,9.4-1.4,13.9c-5.9,9.4-12.8,18.1-19.9,26.5
		c-4.6,5.4-4.7,10.3-1.2,16.2c25.8,43.3,61.8,74.6,108.6,93.3c6.4,2.6,11.5,1.5,15.9-3.9c7.9-9.9,16.1-19.4,23.6-29.5
		c4.4-5.9,9.3-7.9,16-5.1c23.1,9.4,45.2,20.9,67.5,32.2c3.9,2,5,5.3,4.9,9.4c-0.8,33.8-10.6,50.2-46.7,65.3
		c-20.4,8.5-41.5,6.4-62.4,0.6c-76.1-21.2-132.1-69.1-177-132.1c-14.1-19.8-26.4-40.2-32.1-64.1C193,289.8,192.2,282.3,192.3,273.9z
		"/>
</g>
</svg>
